<svg width="24" height="30" viewBox="0 0 24 30" fill="none" xmlns="http://www.w3.org/2000/svg">
<path d="M10.5261 0C8.4046 0 6.66569 1.79923 6.66569 4.00089V6.35924H8.47238V4.00089C8.47238 2.80561 9.37433 1.87498 10.5261 1.87498H13.4795C14.6312 1.87498 15.528 2.80534 15.528 4.00089L15.5282 6.35924H17.3349V4.00089C17.3349 1.79923 15.6012 0 13.4797 0H10.5261ZM17.3347 6.3594V9.11138C17.3621 10.3893 15.5006 10.3893 15.528 9.11138V6.3594H8.47212V9.11138C8.44611 10.3341 6.69145 10.3341 6.66543 9.11138V6.3594H2.70987C2.68103 6.35793 2.6522 6.35793 2.62336 6.3594C2.18762 6.40313 1.84483 6.76515 1.80994 7.21798L0.00324894 28.9838C-0.041112 29.5306 0.374467 29.9998 0.903187 30H23.095C23.6245 30.0008 24.0411 29.5313 23.9968 28.9838L22.1883 7.21798C22.1487 6.7327 21.7578 6.35961 21.2883 6.3594H17.3347Z" fill="#51D6C7"/>
</svg>
