<svg width="130" height="26" viewBox="0 0 130 26" fill="none" xmlns="http://www.w3.org/2000/svg">
<path d="M14.97 21.28H7.11001L5.85001 25H0.480011L8.10001 3.94H14.04L21.66 25H16.23L14.97 21.28ZM13.65 17.32L11.04 9.61L8.46001 17.32H13.65Z" fill="white"/>
<path d="M29.1092 2.8V25H23.9792V2.8H29.1092Z" fill="white"/>
<path d="M31.8068 16.6C31.8068 14.88 32.1268 13.37 32.7668 12.07C33.4268 10.77 34.3168 9.77 35.4368 9.07C36.5568 8.37 37.8068 8.02 39.1868 8.02C40.2868 8.02 41.2868 8.25 42.1868 8.71C43.1068 9.17 43.8268 9.79 44.3468 10.57V2.8H49.4768V25H44.3468V22.6C43.8668 23.4 43.1768 24.04 42.2768 24.52C41.3968 25 40.3668 25.24 39.1868 25.24C37.8068 25.24 36.5568 24.89 35.4368 24.19C34.3168 23.47 33.4268 22.46 32.7668 21.16C32.1268 19.84 31.8068 18.32 31.8068 16.6ZM44.3468 16.63C44.3468 15.35 43.9868 14.34 43.2668 13.6C42.5668 12.86 41.7068 12.49 40.6868 12.49C39.6668 12.49 38.7968 12.86 38.0768 13.6C37.3768 14.32 37.0268 15.32 37.0268 16.6C37.0268 17.88 37.3768 18.9 38.0768 19.66C38.7968 20.4 39.6668 20.77 40.6868 20.77C41.7068 20.77 42.5668 20.4 43.2668 19.66C43.9868 18.92 44.3468 17.91 44.3468 16.63Z" fill="white"/>
<path d="M55.7681 6.52C54.8681 6.52 54.1281 6.26 53.5481 5.74C52.9881 5.2 52.7081 4.54 52.7081 3.76C52.7081 2.96 52.9881 2.3 53.5481 1.78C54.1281 1.24 54.8681 0.970001 55.7681 0.970001C56.6481 0.970001 57.3681 1.24 57.9281 1.78C58.5081 2.3 58.7981 2.96 58.7981 3.76C58.7981 4.54 58.5081 5.2 57.9281 5.74C57.3681 6.26 56.6481 6.52 55.7681 6.52ZM58.3181 8.26V25H53.1881V8.26H58.3181Z" fill="white"/>
<path d="M63.2058 3.94H68.4558L65.0958 11.98H61.6458L63.2058 3.94Z" fill="white"/>
<path d="M76.5994 10.63C77.0794 9.85 77.7694 9.22 78.6694 8.74C79.5694 8.26 80.5994 8.02 81.7594 8.02C83.1394 8.02 84.3894 8.37 85.5094 9.07C86.6294 9.77 87.5094 10.77 88.1494 12.07C88.8094 13.37 89.1394 14.88 89.1394 16.6C89.1394 18.32 88.8094 19.84 88.1494 21.16C87.5094 22.46 86.6294 23.47 85.5094 24.19C84.3894 24.89 83.1394 25.24 81.7594 25.24C80.5794 25.24 79.5494 25.01 78.6694 24.55C77.7894 24.07 77.0994 23.44 76.5994 22.66V25H71.4694V2.8H76.5994V10.63ZM83.9194 16.6C83.9194 15.32 83.5594 14.32 82.8394 13.6C82.1394 12.86 81.2694 12.49 80.2294 12.49C79.2094 12.49 78.3394 12.86 77.6194 13.6C76.9194 14.34 76.5694 15.35 76.5694 16.63C76.5694 17.91 76.9194 18.92 77.6194 19.66C78.3394 20.4 79.2094 20.77 80.2294 20.77C81.2494 20.77 82.1194 20.4 82.8394 19.66C83.5594 18.9 83.9194 17.88 83.9194 16.6Z" fill="white"/>
<path d="M102.031 8.08C103.991 8.08 105.551 8.72 106.711 10C107.891 11.26 108.481 13 108.481 15.22V25H103.381V15.91C103.381 14.79 103.091 13.92 102.511 13.3C101.931 12.68 101.151 12.37 100.171 12.37C99.1907 12.37 98.4107 12.68 97.8307 13.3C97.2507 13.92 96.9607 14.79 96.9607 15.91V25H91.8307V8.26H96.9607V10.48C97.4807 9.74 98.1807 9.16 99.0607 8.74C99.9407 8.3 100.931 8.08 102.031 8.08Z" fill="white"/>
<path d="M117.176 10.63C117.656 9.85 118.346 9.22 119.246 8.74C120.146 8.26 121.176 8.02 122.336 8.02C123.716 8.02 124.966 8.37 126.086 9.07C127.206 9.77 128.086 10.77 128.726 12.07C129.386 13.37 129.716 14.88 129.716 16.6C129.716 18.32 129.386 19.84 128.726 21.16C128.086 22.46 127.206 23.47 126.086 24.19C124.966 24.89 123.716 25.24 122.336 25.24C121.156 25.24 120.126 25.01 119.246 24.55C118.366 24.07 117.676 23.44 117.176 22.66V25H112.046V2.8H117.176V10.63ZM124.496 16.6C124.496 15.32 124.136 14.32 123.416 13.6C122.716 12.86 121.846 12.49 120.806 12.49C119.786 12.49 118.916 12.86 118.196 13.6C117.496 14.34 117.146 15.35 117.146 16.63C117.146 17.91 117.496 18.92 118.196 19.66C118.916 20.4 119.786 20.77 120.806 20.77C121.826 20.77 122.696 20.4 123.416 19.66C124.136 18.9 124.496 17.88 124.496 16.6Z" fill="white"/>
</svg>
