<svg width="171" height="33" viewBox="0 0 171 33" fill="none" xmlns="http://www.w3.org/2000/svg">
<path d="M19.6553 27.0737H9.33527L7.68092 31.958H0.630229L10.6351 4.30671H18.4342L28.4391 31.958H21.3096L19.6553 27.0737ZM17.9221 21.8743L14.4953 11.7513L11.1078 21.8743H17.9221ZM38.2196 2.80992V31.958H31.4841V2.80992H38.2196ZM41.7616 20.929C41.7616 18.6707 42.1817 16.6881 43.0221 14.9812C43.8886 13.2743 45.0572 11.9614 46.5277 11.0423C47.9982 10.1232 49.6395 9.66366 51.4514 9.66366C52.8956 9.66366 54.2086 9.96564 55.3903 10.5696C56.5982 11.1736 57.5436 11.9876 58.2263 13.0117V2.80992H64.9619V31.958H58.2263V28.8069C57.5961 29.8572 56.6901 30.6975 55.5085 31.3278C54.353 31.958 53.0007 32.2731 51.4514 32.2731C49.6395 32.2731 47.9982 31.8136 46.5277 30.8945C45.0572 29.9492 43.8886 28.623 43.0221 26.9162C42.1817 25.183 41.7616 23.1873 41.7616 20.929ZM58.2263 20.9684C58.2263 19.2878 57.7537 17.9617 56.8083 16.9901C55.8892 16.0185 54.7601 15.5327 53.4208 15.5327C52.0816 15.5327 50.9393 16.0185 49.994 16.9901C49.0749 17.9354 48.6153 19.2484 48.6153 20.929C48.6153 22.6096 49.0749 23.9488 49.994 24.9467C50.9393 25.9183 52.0816 26.4041 53.4208 26.4041C54.7601 26.4041 55.8892 25.9183 56.8083 24.9467C57.7537 23.9751 58.2263 22.649 58.2263 20.9684ZM73.2223 7.69419C72.0406 7.69419 71.069 7.35282 70.3075 6.67007C69.5722 5.96106 69.2046 5.0945 69.2046 4.07037C69.2046 3.01999 69.5722 2.15343 70.3075 1.47068C71.069 0.76167 72.0406 0.407166 73.2223 0.407166C74.3777 0.407166 75.323 0.76167 76.0583 1.47068C76.8198 2.15343 77.2006 3.01999 77.2006 4.07037C77.2006 5.0945 76.8198 5.96106 76.0583 6.67007C75.323 7.35282 74.3777 7.69419 73.2223 7.69419ZM76.5704 9.97877V31.958H69.8348V9.97877H76.5704ZM82.9877 4.30671H89.8809L85.4693 14.863H80.9395L82.9877 4.30671ZM100.573 13.0905C101.203 12.0664 102.109 11.2392 103.291 10.609C104.473 9.97877 105.825 9.66366 107.348 9.66366C109.16 9.66366 110.801 10.1232 112.272 11.0423C113.742 11.9614 114.898 13.2743 115.738 14.9812C116.605 16.6881 117.038 18.6707 117.038 20.929C117.038 23.1873 116.605 25.183 115.738 26.9162C114.898 28.623 113.742 29.9492 112.272 30.8945C110.801 31.8136 109.16 32.2731 107.348 32.2731C105.799 32.2731 104.447 31.9711 103.291 31.3672C102.136 30.7369 101.23 29.9098 100.573 28.8856V31.958H93.8377V2.80992H100.573V13.0905ZM110.184 20.929C110.184 19.2484 109.712 17.9354 108.766 16.9901C107.847 16.0185 106.705 15.5327 105.339 15.5327C104 15.5327 102.858 16.0185 101.912 16.9901C100.993 17.9617 100.534 19.2878 100.534 20.9684C100.534 22.649 100.993 23.9751 101.912 24.9467C102.858 25.9183 104 26.4041 105.339 26.4041C106.679 26.4041 107.821 25.9183 108.766 24.9467C109.712 23.9488 110.184 22.6096 110.184 20.929ZM133.964 9.74244C136.537 9.74244 138.586 10.5827 140.109 12.2634C141.658 13.9177 142.433 16.2023 142.433 19.1171V31.958H135.736V20.023C135.736 18.5525 135.356 17.4102 134.594 16.5962C133.833 15.7821 132.809 15.3751 131.522 15.3751C130.235 15.3751 129.211 15.7821 128.449 16.5962C127.688 17.4102 127.307 18.5525 127.307 20.023V31.958H120.572V9.97877H127.307V12.8936C127.99 11.922 128.909 11.1604 130.064 10.609C131.22 10.0313 132.52 9.74244 133.964 9.74244ZM153.849 13.0905C154.479 12.0664 155.385 11.2392 156.567 10.609C157.748 9.97877 159.101 9.66366 160.624 9.66366C162.436 9.66366 164.077 10.1232 165.547 11.0423C167.018 11.9614 168.173 13.2743 169.014 14.9812C169.88 16.6881 170.314 18.6707 170.314 20.929C170.314 23.1873 169.88 25.183 169.014 26.9162C168.173 28.623 167.018 29.9492 165.547 30.8945C164.077 31.8136 162.436 32.2731 160.624 32.2731C159.074 32.2731 157.722 31.9711 156.567 31.3672C155.411 30.7369 154.505 29.9098 153.849 28.8856V31.958H147.113V2.80992H153.849V13.0905ZM163.46 20.929C163.46 19.2484 162.987 17.9354 162.042 16.9901C161.123 16.0185 159.98 15.5327 158.615 15.5327C157.276 15.5327 156.133 16.0185 155.188 16.9901C154.269 17.9617 153.809 19.2878 153.809 20.9684C153.809 22.649 154.269 23.9751 155.188 24.9467C156.133 25.9183 157.276 26.4041 158.615 26.4041C159.954 26.4041 161.096 25.9183 162.042 24.9467C162.987 23.9488 163.46 22.6096 163.46 20.929Z" fill="#513F75"/>
</svg>
